<svg width="35" height="36" viewBox="0 0 35 36" fill="none" xmlns="http://www.w3.org/2000/svg">
<path d="M31.643 3.8337C35.5628 7.69415 34.1178 6.30859 32.5211 8.6124L9.60537 31.5281L4.92431 31.9666L3.36396 32.1127L3.5101 30.5524L3.94851 25.8713L26.8643 2.95555C29.4118 1.11513 27.7231 -0.0267429 31.643 3.8337Z" fill="white"/>
<path d="M9.60537 31.5281L32.5211 8.6124M9.60537 31.5281L8.19115 30.1139M9.60537 31.5281L4.92431 31.9666M3.94851 25.8713L26.8643 2.95555M3.94851 25.8713L5.36273 27.2855M3.94851 25.8713L3.5101 30.5524M32.5211 8.6124C34.1178 6.30859 35.5628 7.69415 31.643 3.8337C27.7231 -0.0267433 29.4118 1.11513 26.8643 2.95555M32.5211 8.6124L31.1069 7.19819M26.8643 2.95555L28.2785 4.36977M31.1069 7.19819L8.19115 30.1139M31.1069 7.19819L29.6927 5.78398M8.19115 30.1139L6.77694 28.6997M6.77694 28.6997L29.6927 5.78398M6.77694 28.6997L5.36273 27.2855M29.6927 5.78398L28.2785 4.36977M28.2785 4.36977L5.36273 27.2855M4.92431 31.9666L3.36396 32.1127L3.5101 30.5524M4.92431 31.9666L3.5101 30.5524" stroke="black" stroke-width="0.5" stroke-linecap="round" stroke-linejoin="round"/>
</svg>
