<svg width="98" height="35" viewBox="0 0 98 35" fill="none" xmlns="http://www.w3.org/2000/svg">
<rect width="98" height="35" rx="5" fill="white"/>
<path d="M39.0498 20.6326C39.0498 20.2452 38.9131 19.949 38.6396 19.7439C38.3662 19.5343 37.874 19.3155 37.1631 19.0876C36.4521 18.8552 35.8893 18.6274 35.4746 18.4041C34.3444 17.7934 33.7793 16.9708 33.7793 15.9363C33.7793 15.3985 33.9297 14.92 34.2305 14.5007C34.5358 14.0769 34.971 13.7465 35.5361 13.5095C36.1058 13.2725 36.7438 13.1541 37.4502 13.1541C38.1611 13.1541 38.7946 13.2839 39.3506 13.5437C39.9066 13.7989 40.3372 14.1612 40.6426 14.6306C40.9525 15.1 41.1074 15.6332 41.1074 16.2302H39.0566C39.0566 15.7745 38.9131 15.4213 38.626 15.1707C38.3389 14.9154 37.9355 14.7878 37.416 14.7878C36.9147 14.7878 36.5251 14.8949 36.2471 15.1091C35.9691 15.3188 35.8301 15.5968 35.8301 15.9431C35.8301 16.2667 35.9919 16.5378 36.3154 16.7566C36.6436 16.9753 37.1243 17.1804 37.7578 17.3718C38.9245 17.7227 39.7744 18.158 40.3076 18.6775C40.8408 19.197 41.1074 19.8442 41.1074 20.6189C41.1074 21.4802 40.7816 22.157 40.1299 22.6492C39.4782 23.1368 38.6009 23.3806 37.498 23.3806C36.7324 23.3806 36.0352 23.2416 35.4062 22.9636C34.7773 22.6811 34.2965 22.296 33.9639 21.8083C33.6357 21.3207 33.4717 20.7556 33.4717 20.113H35.5293C35.5293 21.2113 36.1855 21.7605 37.498 21.7605C37.9857 21.7605 38.3662 21.6625 38.6396 21.4666C38.9131 21.266 39.0498 20.988 39.0498 20.6326ZM44.5527 19.7371V23.2439H42.502V13.2908H46.3848C47.1322 13.2908 47.7884 13.4275 48.3535 13.7009C48.9232 13.9744 49.3607 14.364 49.666 14.8699C49.9714 15.3712 50.124 15.9431 50.124 16.5857C50.124 17.561 49.7891 18.3311 49.1191 18.8962C48.4538 19.4568 47.5309 19.7371 46.3506 19.7371H44.5527ZM44.5527 18.0759H46.3848C46.9271 18.0759 47.3395 17.9483 47.6221 17.6931C47.9092 17.4379 48.0527 17.0733 48.0527 16.5994C48.0527 16.1117 47.9092 15.7175 47.6221 15.4167C47.335 15.116 46.9385 14.961 46.4326 14.9519H44.5527V18.0759ZM55.9414 21.1931H52.3457L51.6621 23.2439H49.4814L53.1865 13.2908H55.0869L58.8125 23.2439H56.6318L55.9414 21.1931ZM52.8994 19.532H55.3877L54.1367 15.8064L52.8994 19.532ZM67.8359 23.2439H65.7852L61.793 16.6951V23.2439H59.7422V13.2908H61.793L65.792 19.8533V13.2908H67.8359V23.2439ZM74.2139 23.2439H72.2383V15.6287L69.8799 16.3601V14.7537L74.002 13.2771H74.2139V23.2439ZM84.1533 19.1287C84.1533 20.505 83.8685 21.5577 83.2988 22.2869C82.7292 23.016 81.8952 23.3806 80.7969 23.3806C79.7122 23.3806 78.8828 23.0229 78.3086 22.3074C77.7344 21.5919 77.4404 20.5665 77.4268 19.2312V17.3992C77.4268 16.0092 77.7139 14.9542 78.2881 14.2341C78.8669 13.5141 79.6986 13.1541 80.7832 13.1541C81.8678 13.1541 82.6973 13.5118 83.2715 14.2273C83.8457 14.9382 84.1396 15.9613 84.1533 17.2966V19.1287ZM82.1777 17.1189C82.1777 16.294 82.0638 15.6947 81.8359 15.321C81.6126 14.9428 81.2617 14.7537 80.7832 14.7537C80.3184 14.7537 79.9743 14.9337 79.751 15.2937C79.5322 15.6492 79.416 16.2074 79.4023 16.9685V19.3884C79.4023 20.1996 79.5117 20.8035 79.7305 21.2C79.9538 21.5919 80.3092 21.7878 80.7969 21.7878C81.2799 21.7878 81.6286 21.5987 81.8428 21.2205C82.057 20.8422 82.1686 20.2634 82.1777 19.4841V17.1189ZM90.292 23.2439H88.3164V15.6287L85.958 16.3601V14.7537L90.0801 13.2771H90.292V23.2439Z" fill="#4A148C"/>
<rect x="4" y="10.2439" width="23" height="14.5122" fill="white"/>
<path d="M15.5 24.7561V15.2439C15.5 12.4825 17.7386 10.2439 20.5 10.2439H24.2941V17.5V21.128V22.9421" stroke="black" stroke-opacity="0.44" stroke-width="0.25"/>
<path d="M24.2941 11.2564H27V24.7561H4V11.2564H6.70588" stroke="black" stroke-opacity="0.44" stroke-width="0.25"/>
<path d="M15.5 24.7561V15.2439C15.5 12.4825 13.2614 10.2439 10.5 10.2439H6.70587V17.5V21.128V22.9421" stroke="black" stroke-opacity="0.44" stroke-width="0.25"/>
<path d="M15.5 24.7561C15.5 23.2374 17.8677 22.8999 24.2941 22.8999" stroke="black" stroke-opacity="0.44" stroke-width="0.25"/>
<path d="M15.5 24.7561C15.5 23.0686 12.625 22.8999 6.70587 22.8999" stroke="black" stroke-opacity="0.44" stroke-width="0.25"/>
</svg>
